<?xml version="1.0" encoding="UTF-8" standalone="no"?>
<svg width="370.417mm" height="257.881mm"
 xmlns="http://www.w3.org/2000/svg" xmlns:xlink="http://www.w3.org/1999/xlink"  version="1.2" baseProfile="tiny">
<title>Qt SVG Document</title>
<desc>Generated with Qt</desc>
<defs>
</defs>
<g fill="none" stroke="black" stroke-width="1" fill-rule="evenodd" stroke-linecap="square" stroke-linejoin="bevel" >

<g fill="none" stroke="#000000" stroke-opacity="1" stroke-width="1" stroke-linecap="square" stroke-linejoin="bevel" transform="matrix(0.75,0,0,0.75,0,0)"
font-family="Noto Sans" font-size="12" font-weight="400" font-style="normal" 
>
</g>

<g fill="#ffffff" fill-opacity="1" stroke="none" transform="matrix(2.2749,0,0,2.2749,-764.365,-398.107)"
font-family="Noto Sans" font-size="12" font-weight="400" font-style="normal" 
>
<path vector-effect="none" fill-rule="evenodd" d="M336,175 L682,175 L682,416 L336,416 L336,175"/>
</g>

<g fill="none" stroke="#000000" stroke-opacity="1" stroke-width="1" stroke-linecap="square" stroke-linejoin="bevel" transform="matrix(-2.2749,0,0,-2.2749,441.33,329.86)"
font-family="Noto Sans" font-size="12" font-weight="400" font-style="normal" 
>
<polyline fill="none" vector-effect="none" points="31,-40 31,40 -49,0 31,-40 31,-40 " />
</g>

<g fill="none" stroke="#000000" stroke-opacity="1" stroke-width="1" stroke-linecap="square" stroke-linejoin="bevel" transform="matrix(-2.2749,0,0,-2.2749,400.382,395.832)"
font-family="Noto Sans" font-size="12" font-weight="400" font-style="normal" 
>
<text fill="#000000" fill-opacity="1" stroke="none" xml:space="preserve" x="0" y="13" font-family="Sans Serif" font-size="9" font-weight="400" font-style="normal" 
 >+</text>
</g>

<g fill="none" stroke="#000000" stroke-opacity="1" stroke-width="1" stroke-linecap="square" stroke-linejoin="bevel" transform="matrix(-2.2749,0,0,-2.2749,395.832,307.111)"
font-family="Noto Sans" font-size="12" font-weight="400" font-style="normal" 
>
<text fill="#000000" fill-opacity="1" stroke="none" xml:space="preserve" x="0" y="13" font-family="Sans Serif" font-size="9" font-weight="400" font-style="normal" 
 >-</text>
</g>

<g fill="none" stroke="#000000" stroke-opacity="1" stroke-width="1" stroke-linecap="square" stroke-linejoin="miter" stroke-miterlimit="2" transform="matrix(0,2.2749,-2.2749,0,464.079,79.6214)"
font-family="Noto Sans" font-size="12" font-weight="400" font-style="normal" 
>
<polyline fill="none" vector-effect="none" points="-5,2 5,2 " />
<polyline fill="none" vector-effect="none" points="-5,-2 5,-2 " />
<polyline fill="none" vector-effect="none" points="0,2 0,20 " />
<polyline fill="none" vector-effect="none" points="0,-20 0,-2 " />
</g>

<g fill="none" stroke="#000000" stroke-opacity="1" stroke-width="1" stroke-linecap="square" stroke-linejoin="bevel" transform="matrix(2.2749,0,0,2.2749,441.33,11.3745)"
font-family="Noto Sans" font-size="12" font-weight="400" font-style="normal" 
>
</g>

<g fill="none" stroke="#000000" stroke-opacity="1" stroke-width="1" stroke-linecap="square" stroke-linejoin="bevel" transform="matrix(2.2749,0,0,2.2749,441.33,11.3745)"
font-family="Noto Sans" font-size="12" font-weight="400" font-style="normal" 
>
<text fill="#000000" fill-opacity="1" stroke="none" xml:space="preserve" x="4" y="17" font-family="Sans Serif" font-size="9" font-weight="0" font-style="normal" 
 >C</text>
</g>

<g fill="none" stroke="#000000" stroke-opacity="1" stroke-width="1" stroke-linecap="square" stroke-linejoin="bevel" transform="matrix(2.2749,0,0,2.2749,441.33,11.3745)"
font-family="Noto Sans" font-size="12" font-weight="400" font-style="normal" 
>
</g>

<g fill="none" stroke="#000000" stroke-opacity="1" stroke-width="1" stroke-linecap="square" stroke-linejoin="bevel" transform="matrix(0.75,0,0,0.75,0,0)"
font-family="Noto Sans" font-size="12" font-weight="400" font-style="normal" 
>
</g>

<g fill="none" stroke="#000000" stroke-opacity="1" stroke-width="1" stroke-linecap="square" stroke-linejoin="miter" stroke-miterlimit="2" transform="matrix(0,2.2749,-2.2749,0,373.083,79.6214)"
font-family="Noto Sans" font-size="12" font-weight="400" font-style="normal" 
>
<polyline fill="none" vector-effect="none" points="0,20 0,-20 " />
</g>

<g fill="#ffffff" fill-opacity="1" stroke="#000000" stroke-opacity="1" stroke-width="1" stroke-linecap="square" stroke-linejoin="miter" stroke-miterlimit="2" transform="matrix(0,2.2749,-2.2749,0,373.083,79.6214)"
font-family="Noto Sans" font-size="12" font-weight="400" font-style="normal" 
>
<path vector-effect="none" fill-rule="evenodd" d="M-4,-10 L4,-10 L4,10 L-4,10 L-4,-10"/>
</g>

<g fill="none" stroke="#000000" stroke-opacity="1" stroke-width="1" stroke-linecap="square" stroke-linejoin="bevel" transform="matrix(2.2749,0,0,2.2749,350.334,11.3745)"
font-family="Noto Sans" font-size="12" font-weight="400" font-style="normal" 
>
</g>

<g fill="none" stroke="#000000" stroke-opacity="1" stroke-width="1" stroke-linecap="square" stroke-linejoin="bevel" transform="matrix(2.2749,0,0,2.2749,350.334,11.3745)"
font-family="Noto Sans" font-size="12" font-weight="400" font-style="normal" 
>
<text fill="#000000" fill-opacity="1" stroke="none" xml:space="preserve" x="4" y="18" font-family="Sans Serif" font-size="9" font-weight="400" font-style="normal" 
 >R1</text>
</g>

<g fill="none" stroke="#000000" stroke-opacity="1" stroke-width="1" stroke-linecap="square" stroke-linejoin="bevel" transform="matrix(2.2749,0,0,2.2749,350.334,11.3745)"
font-family="Noto Sans" font-size="12" font-weight="400" font-style="normal" 
>
</g>

<g fill="none" stroke="#000000" stroke-opacity="1" stroke-width="1" stroke-linecap="square" stroke-linejoin="bevel" transform="matrix(0.75,0,0,0.75,0,0)"
font-family="Noto Sans" font-size="12" font-weight="400" font-style="normal" 
>
</g>

<g fill="none" stroke="#000000" stroke-opacity="1" stroke-width="1" stroke-linecap="square" stroke-linejoin="miter" stroke-miterlimit="2" transform="matrix(0,2.2749,-2.2749,0,168.342,284.362)"
font-family="Noto Sans" font-size="12" font-weight="400" font-style="normal" 
>
<polyline fill="none" vector-effect="none" points="0,20 0,-20 " />
</g>

<g fill="#ffffff" fill-opacity="1" stroke="#000000" stroke-opacity="1" stroke-width="1" stroke-linecap="square" stroke-linejoin="miter" stroke-miterlimit="2" transform="matrix(0,2.2749,-2.2749,0,168.342,284.362)"
font-family="Noto Sans" font-size="12" font-weight="400" font-style="normal" 
>
<path vector-effect="none" fill-rule="evenodd" d="M-4,-10 L4,-10 L4,10 L-4,10 L-4,-10"/>
</g>

<g fill="none" stroke="#000000" stroke-opacity="1" stroke-width="1" stroke-linecap="square" stroke-linejoin="bevel" transform="matrix(2.2749,0,0,2.2749,145.593,216.115)"
font-family="Noto Sans" font-size="12" font-weight="400" font-style="normal" 
>
</g>

<g fill="none" stroke="#000000" stroke-opacity="1" stroke-width="1" stroke-linecap="square" stroke-linejoin="bevel" transform="matrix(2.2749,0,0,2.2749,145.593,216.115)"
font-family="Noto Sans" font-size="12" font-weight="400" font-style="normal" 
>
<text fill="#000000" fill-opacity="1" stroke="none" xml:space="preserve" x="4" y="18" font-family="Sans Serif" font-size="9" font-weight="400" font-style="normal" 
 >R0</text>
</g>

<g fill="none" stroke="#000000" stroke-opacity="1" stroke-width="1" stroke-linecap="square" stroke-linejoin="bevel" transform="matrix(2.2749,0,0,2.2749,145.593,216.115)"
font-family="Noto Sans" font-size="12" font-weight="400" font-style="normal" 
>
</g>

<g fill="none" stroke="#000000" stroke-opacity="1" stroke-width="1" stroke-linecap="square" stroke-linejoin="bevel" transform="matrix(0.75,0,0,0.75,0,0)"
font-family="Noto Sans" font-size="12" font-weight="400" font-style="normal" 
>
</g>

<g fill="none" stroke="#000000" stroke-opacity="1" stroke-width="2" stroke-linecap="square" stroke-linejoin="miter" stroke-miterlimit="2" transform="matrix(2.2749,0,0,2.2749,304.836,489.103)"
font-family="Noto Sans" font-size="12" font-weight="400" font-style="normal" 
>
<polyline fill="none" vector-effect="none" points="0,-16 0,13 " />
<polyline fill="none" vector-effect="none" points="-13.6493,14 12.62,14 " />
</g>

<g fill="none" stroke="#000000" stroke-opacity="1" stroke-width="1" stroke-linecap="square" stroke-linejoin="bevel" transform="matrix(2.2749,0,0,2.2749,323.035,468.629)"
font-family="Noto Sans" font-size="12" font-weight="400" font-style="normal" 
>
</g>

<g fill="none" stroke="#000000" stroke-opacity="1" stroke-width="1" stroke-linecap="square" stroke-linejoin="bevel" transform="matrix(2.2749,0,0,2.2749,323.035,468.629)"
font-family="Noto Sans" font-size="12" font-weight="400" font-style="normal" 
>
</g>

<g fill="none" stroke="#000000" stroke-opacity="1" stroke-width="1" stroke-linecap="square" stroke-linejoin="bevel" transform="matrix(0.75,0,0,0.75,0,0)"
font-family="Noto Sans" font-size="12" font-weight="400" font-style="normal" 
>
</g>

<g fill="none" stroke="#000000" stroke-opacity="1" stroke-width="1" stroke-linecap="square" stroke-linejoin="bevel" transform="matrix(0,2.2749,-2.2749,0,714.317,329.86)"
font-family="Noto Sans" font-size="12" font-weight="400" font-style="normal" 
>
<circle cx="0" cy="0" r="8"/>
</g>

<g fill="none" stroke="#000000" stroke-opacity="1" stroke-width="1" stroke-linecap="square" stroke-linejoin="miter" stroke-miterlimit="2" transform="matrix(0,2.2749,-2.2749,0,714.317,329.86)"
font-family="Noto Sans" font-size="12" font-weight="400" font-style="normal" 
>
<polyline fill="none" vector-effect="none" points="0,10 0,8 " />
</g>

<g fill="none" stroke="#000000" stroke-opacity="1" stroke-width="1" stroke-linecap="square" stroke-linejoin="bevel" transform="matrix(2.2749,0,0,2.2749,757.54,343.509)"
font-family="Noto Sans" font-size="12" font-weight="400" font-style="normal" 
>
</g>

<g fill="none" stroke="#000000" stroke-opacity="1" stroke-width="1" stroke-linecap="square" stroke-linejoin="bevel" transform="matrix(2.2749,0,0,2.2749,757.54,343.509)"
font-family="Noto Sans" font-size="12" font-weight="400" font-style="normal" 
>
</g>

<g fill="none" stroke="#000000" stroke-opacity="1" stroke-width="1" stroke-linecap="square" stroke-linejoin="bevel" transform="matrix(0.75,0,0,0.75,0,0)"
font-family="Noto Sans" font-size="12" font-weight="400" font-style="normal" 
>
</g>

<g fill="none" stroke="#000000" stroke-opacity="1" stroke-width="1" stroke-linecap="square" stroke-linejoin="bevel" transform="matrix(0,-2.2749,2.2749,0,54.5975,284.362)"
font-family="Noto Sans" font-size="12" font-weight="400" font-style="normal" 
>
<circle cx="0" cy="0" r="8"/>
</g>

<g fill="none" stroke="#000000" stroke-opacity="1" stroke-width="1" stroke-linecap="square" stroke-linejoin="miter" stroke-miterlimit="2" transform="matrix(0,-2.2749,2.2749,0,54.5975,284.362)"
font-family="Noto Sans" font-size="12" font-weight="400" font-style="normal" 
>
<polyline fill="none" vector-effect="none" points="0,10 0,8 " />
</g>

<g fill="none" stroke="#000000" stroke-opacity="1" stroke-width="1" stroke-linecap="square" stroke-linejoin="bevel" transform="matrix(2.2749,0,0,2.2749,11.3745,270.713)"
font-family="Noto Sans" font-size="12" font-weight="400" font-style="normal" 
>
</g>

<g fill="none" stroke="#000000" stroke-opacity="1" stroke-width="1" stroke-linecap="square" stroke-linejoin="bevel" transform="matrix(2.2749,0,0,2.2749,11.3745,270.713)"
font-family="Noto Sans" font-size="12" font-weight="400" font-style="normal" 
>
</g>

<g fill="none" stroke="#000000" stroke-opacity="1" stroke-width="1" stroke-linecap="square" stroke-linejoin="bevel" transform="matrix(0.75,0,0,0.75,0,0)"
font-family="Noto Sans" font-size="12" font-weight="400" font-style="normal" 
>
</g>

<g fill="none" stroke="#000000" stroke-opacity="1" stroke-width="1" stroke-linecap="square" stroke-linejoin="miter" stroke-miterlimit="2" transform="matrix(2.2749,0,0,2.2749,122.844,420.856)"
font-family="Noto Sans" font-size="12" font-weight="400" font-style="normal" 
>
<path vector-effect="none" fill-rule="evenodd" d="M9.51879,29.5793 L8.09807,30.0605 L10,31 L10.9395,29.0981 L9.51879,29.5793"/>
<polyline fill="none" vector-effect="none" points="-11,-31 9.51879,29.5793 " />
</g>

<g fill="none" stroke="#000000" stroke-opacity="1" stroke-width="1" stroke-linecap="square" stroke-linejoin="bevel" transform="matrix(2.2749,0,0,2.2749,141.044,382.296)"
font-family="Noto Sans" font-size="12" font-weight="400" font-style="normal" 
>
</g>

<g fill="none" stroke="#000000" stroke-opacity="1" stroke-width="1" stroke-linecap="square" stroke-linejoin="bevel" transform="matrix(2.2749,0,0,2.2749,141.044,382.296)"
font-family="Noto Sans" font-size="12" font-weight="400" font-style="normal" 
>
<text fill="#000000" fill-opacity="1" stroke="none" xml:space="preserve" x="4" y="17" font-family="Sans Serif" font-size="9" font-weight="0" font-style="normal" 
 >u0</text>
</g>

<g fill="none" stroke="#000000" stroke-opacity="1" stroke-width="1" stroke-linecap="square" stroke-linejoin="bevel" transform="matrix(2.2749,0,0,2.2749,141.044,382.296)"
font-family="Noto Sans" font-size="12" font-weight="400" font-style="normal" 
>
</g>

<g fill="none" stroke="#000000" stroke-opacity="1" stroke-width="1" stroke-linecap="square" stroke-linejoin="bevel" transform="matrix(0.75,0,0,0.75,0,0)"
font-family="Noto Sans" font-size="12" font-weight="400" font-style="normal" 
>
</g>

<g fill="none" stroke="#000000" stroke-opacity="1" stroke-width="1" stroke-linecap="square" stroke-linejoin="miter" stroke-miterlimit="2" transform="matrix(2.2749,0,0,2.2749,577.824,420.856)"
font-family="Noto Sans" font-size="12" font-weight="400" font-style="normal" 
>
<polyline fill="none" vector-effect="none" points="10,-31 -11,30 " />
</g>

<g fill="none" stroke="#000000" stroke-opacity="1" stroke-width="1" stroke-linecap="square" stroke-linejoin="bevel" transform="matrix(2.2749,0,0,2.2749,577.824,420.856)"
font-family="Noto Sans" font-size="12" font-weight="400" font-style="normal" 
>
<path vector-effect="none" fill-rule="evenodd" d="M-12.488,29.57 L-9.46067,30.8598 L-11.9385,32.3615 L-12.488,29.57"/>
</g>

<g fill="none" stroke="#000000" stroke-opacity="1" stroke-width="1" stroke-linecap="square" stroke-linejoin="bevel" transform="matrix(2.2749,0,0,2.2749,614.222,386.846)"
font-family="Noto Sans" font-size="12" font-weight="400" font-style="normal" 
>
</g>

<g fill="none" stroke="#000000" stroke-opacity="1" stroke-width="1" stroke-linecap="square" stroke-linejoin="bevel" transform="matrix(2.2749,0,0,2.2749,614.222,386.846)"
font-family="Noto Sans" font-size="12" font-weight="400" font-style="normal" 
>
<text fill="#000000" fill-opacity="1" stroke="none" xml:space="preserve" x="4" y="17" font-family="Sans Serif" font-size="9" font-weight="0" font-style="normal" 
 >u0</text>
</g>

<g fill="none" stroke="#000000" stroke-opacity="1" stroke-width="1" stroke-linecap="square" stroke-linejoin="bevel" transform="matrix(2.2749,0,0,2.2749,614.222,386.846)"
font-family="Noto Sans" font-size="12" font-weight="400" font-style="normal" 
>
</g>

<g fill="none" stroke="#000000" stroke-opacity="1" stroke-width="1" stroke-linecap="square" stroke-linejoin="bevel" transform="matrix(0.75,0,0,0.75,0,0)"
font-family="Noto Sans" font-size="12" font-weight="400" font-style="normal" 
>
</g>

<g fill="none" stroke="#000000" stroke-opacity="1" stroke-width="1" stroke-linecap="square" stroke-linejoin="miter" stroke-miterlimit="2" transform="matrix(2.2749,0,0,2.2749,-764.365,-398.107)"
font-family="Noto Sans" font-size="12" font-weight="400" font-style="normal" 
>
<path vector-effect="none" fill-rule="evenodd" d="M561,210 L570,210 L592,210 L592,320 L583,320"/>
</g>

<g fill="#000000" fill-opacity="1" stroke="#000000" stroke-opacity="1" stroke-width="1" stroke-linecap="square" stroke-linejoin="miter" stroke-miterlimit="2" transform="matrix(2.2749,0,0,2.2749,-764.365,-398.107)"
font-family="Noto Sans" font-size="12" font-weight="400" font-style="normal" 
>
<circle cx="592" cy="320" r="1.5"/>
<circle cx="592" cy="320" r="1.5"/>
</g>

<g fill="none" stroke="#000000" stroke-opacity="1" stroke-width="1" stroke-linecap="square" stroke-linejoin="bevel" transform="matrix(0,-2.2749,2.2749,0,589.198,217.839)"
font-family="Noto Sans" font-size="12" font-weight="400" font-style="normal" 
>
</g>

<g fill="none" stroke="#000000" stroke-opacity="1" stroke-width="1" stroke-linecap="square" stroke-linejoin="bevel" transform="matrix(0,-2.2749,2.2749,0,589.198,217.839)"
font-family="Noto Sans" font-size="12" font-weight="400" font-style="normal" 
>
<text fill="#000000" fill-opacity="1" stroke="none" xml:space="preserve" x="4" y="14" font-family="Sans Serif" font-size="7" font-weight="0" font-style="normal" 
 >_</text>
</g>

<g fill="none" stroke="#000000" stroke-opacity="1" stroke-width="1" stroke-linecap="square" stroke-linejoin="bevel" transform="matrix(0,-2.2749,2.2749,0,589.198,217.839)"
font-family="Noto Sans" font-size="12" font-weight="400" font-style="normal" 
>
</g>

<g fill="none" stroke="#000000" stroke-opacity="1" stroke-width="1" stroke-linecap="square" stroke-linejoin="bevel" transform="matrix(0.75,0,0,0.75,0,0)"
font-family="Noto Sans" font-size="12" font-weight="400" font-style="normal" 
>
</g>

<g fill="none" stroke="#000000" stroke-opacity="1" stroke-width="1" stroke-linecap="square" stroke-linejoin="miter" stroke-miterlimit="2" transform="matrix(2.2749,0,0,2.2749,-764.365,-398.107)"
font-family="Noto Sans" font-size="12" font-weight="400" font-style="normal" 
>
<path vector-effect="none" fill-rule="evenodd" d="M480,210 L471,210 L471,300 L485,300 L494,300"/>
</g>

<g fill="#000000" fill-opacity="1" stroke="#000000" stroke-opacity="1" stroke-width="1" stroke-linecap="square" stroke-linejoin="miter" stroke-miterlimit="2" transform="matrix(2.2749,0,0,2.2749,-764.365,-398.107)"
font-family="Noto Sans" font-size="12" font-weight="400" font-style="normal" 
>
<circle cx="471" cy="300" r="1.5"/>
<circle cx="471" cy="300" r="1.5"/>
</g>

<g fill="none" stroke="#000000" stroke-opacity="1" stroke-width="1" stroke-linecap="square" stroke-linejoin="bevel" transform="matrix(0,-2.2749,2.2749,0,313.936,195.09)"
font-family="Noto Sans" font-size="12" font-weight="400" font-style="normal" 
>
</g>

<g fill="none" stroke="#000000" stroke-opacity="1" stroke-width="1" stroke-linecap="square" stroke-linejoin="bevel" transform="matrix(0,-2.2749,2.2749,0,313.936,195.09)"
font-family="Noto Sans" font-size="12" font-weight="400" font-style="normal" 
>
<text fill="#000000" fill-opacity="1" stroke="none" xml:space="preserve" x="4" y="14" font-family="Sans Serif" font-size="7" font-weight="0" font-style="normal" 
 >_</text>
</g>

<g fill="none" stroke="#000000" stroke-opacity="1" stroke-width="1" stroke-linecap="square" stroke-linejoin="bevel" transform="matrix(0,-2.2749,2.2749,0,313.936,195.09)"
font-family="Noto Sans" font-size="12" font-weight="400" font-style="normal" 
>
</g>

<g fill="none" stroke="#000000" stroke-opacity="1" stroke-width="1" stroke-linecap="square" stroke-linejoin="bevel" transform="matrix(0.75,0,0,0.75,0,0)"
font-family="Noto Sans" font-size="12" font-weight="400" font-style="normal" 
>
</g>

<g fill="none" stroke="#000000" stroke-opacity="1" stroke-width="1" stroke-linecap="square" stroke-linejoin="miter" stroke-miterlimit="2" transform="matrix(2.2749,0,0,2.2749,-764.365,-398.107)"
font-family="Noto Sans" font-size="12" font-weight="400" font-style="normal" 
>
<path vector-effect="none" fill-rule="evenodd" d="M430,300 L439,300 L460,300 L485,300 L494,300"/>
</g>

<g fill="none" stroke="#000000" stroke-opacity="1" stroke-width="1" stroke-linecap="square" stroke-linejoin="bevel" transform="matrix(2.2749,0,0,2.2749,273.539,286.637)"
font-family="Noto Sans" font-size="12" font-weight="400" font-style="normal" 
>
</g>

<g fill="none" stroke="#000000" stroke-opacity="1" stroke-width="1" stroke-linecap="square" stroke-linejoin="bevel" transform="matrix(2.2749,0,0,2.2749,273.539,286.637)"
font-family="Noto Sans" font-size="12" font-weight="400" font-style="normal" 
>
<text fill="#000000" fill-opacity="1" stroke="none" xml:space="preserve" x="4" y="14" font-family="Sans Serif" font-size="7" font-weight="0" font-style="normal" 
 >_</text>
</g>

<g fill="none" stroke="#000000" stroke-opacity="1" stroke-width="1" stroke-linecap="square" stroke-linejoin="bevel" transform="matrix(2.2749,0,0,2.2749,273.539,286.637)"
font-family="Noto Sans" font-size="12" font-weight="400" font-style="normal" 
>
</g>

<g fill="none" stroke="#000000" stroke-opacity="1" stroke-width="1" stroke-linecap="square" stroke-linejoin="bevel" transform="matrix(0.75,0,0,0.75,0,0)"
font-family="Noto Sans" font-size="12" font-weight="400" font-style="normal" 
>
</g>

<g fill="none" stroke="#000000" stroke-opacity="1" stroke-width="1" stroke-linecap="square" stroke-linejoin="miter" stroke-miterlimit="2" transform="matrix(2.2749,0,0,2.2749,-764.365,-398.107)"
font-family="Noto Sans" font-size="12" font-weight="400" font-style="normal" 
>
<path vector-effect="none" fill-rule="evenodd" d="M470,370 L470,361 L470,340 L485,340 L494,340"/>
</g>

<g fill="none" stroke="#000000" stroke-opacity="1" stroke-width="1" stroke-linecap="square" stroke-linejoin="bevel" transform="matrix(0,-2.2749,2.2749,0,307.111,412.343)"
font-family="Noto Sans" font-size="12" font-weight="400" font-style="normal" 
>
</g>

<g fill="none" stroke="#000000" stroke-opacity="1" stroke-width="1" stroke-linecap="square" stroke-linejoin="bevel" transform="matrix(0,-2.2749,2.2749,0,307.111,412.343)"
font-family="Noto Sans" font-size="12" font-weight="400" font-style="normal" 
>
<text fill="#000000" fill-opacity="1" stroke="none" xml:space="preserve" x="4" y="14" font-family="Sans Serif" font-size="7" font-weight="0" font-style="normal" 
 >_</text>
</g>

<g fill="none" stroke="#000000" stroke-opacity="1" stroke-width="1" stroke-linecap="square" stroke-linejoin="bevel" transform="matrix(0,-2.2749,2.2749,0,307.111,412.343)"
font-family="Noto Sans" font-size="12" font-weight="400" font-style="normal" 
>
</g>

<g fill="none" stroke="#000000" stroke-opacity="1" stroke-width="1" stroke-linecap="square" stroke-linejoin="bevel" transform="matrix(0.75,0,0,0.75,0,0)"
font-family="Noto Sans" font-size="12" font-weight="400" font-style="normal" 
>
</g>

<g fill="none" stroke="#000000" stroke-opacity="1" stroke-width="1" stroke-linecap="square" stroke-linejoin="miter" stroke-miterlimit="2" transform="matrix(2.2749,0,0,2.2749,-764.365,-398.107)"
font-family="Noto Sans" font-size="12" font-weight="400" font-style="normal" 
>
<path vector-effect="none" fill-rule="evenodd" d="M640,320 L631,320 L610,320 L592,320 L583,320"/>
</g>

<g fill="none" stroke="#000000" stroke-opacity="1" stroke-width="1" stroke-linecap="square" stroke-linejoin="bevel" transform="matrix(2.2749,0,0,2.2749,613.635,332.135)"
font-family="Noto Sans" font-size="12" font-weight="400" font-style="normal" 
>
</g>

<g fill="none" stroke="#000000" stroke-opacity="1" stroke-width="1" stroke-linecap="square" stroke-linejoin="bevel" transform="matrix(2.2749,0,0,2.2749,613.635,332.135)"
font-family="Noto Sans" font-size="12" font-weight="400" font-style="normal" 
>
<text fill="#000000" fill-opacity="1" stroke="none" xml:space="preserve" x="4" y="14" font-family="Sans Serif" font-size="7" font-weight="0" font-style="normal" 
 >_</text>
</g>

<g fill="none" stroke="#000000" stroke-opacity="1" stroke-width="1" stroke-linecap="square" stroke-linejoin="bevel" transform="matrix(2.2749,0,0,2.2749,613.635,332.135)"
font-family="Noto Sans" font-size="12" font-weight="400" font-style="normal" 
>
</g>

<g fill="none" stroke="#000000" stroke-opacity="1" stroke-width="1" stroke-linecap="square" stroke-linejoin="bevel" transform="matrix(0.75,0,0,0.75,0,0)"
font-family="Noto Sans" font-size="12" font-weight="400" font-style="normal" 
>
</g>

<g fill="none" stroke="#000000" stroke-opacity="1" stroke-width="1" stroke-linecap="square" stroke-linejoin="miter" stroke-miterlimit="2" transform="matrix(2.2749,0,0,2.2749,-764.365,-398.107)"
font-family="Noto Sans" font-size="12" font-weight="400" font-style="normal" 
>
<path vector-effect="none" fill-rule="evenodd" d="M370,300 L379,300 L380,300 L381,300 L390,300"/>
</g>

<g fill="none" stroke="#000000" stroke-opacity="1" stroke-width="1" stroke-linecap="square" stroke-linejoin="bevel" transform="matrix(2.2749,0,0,2.2749,145.593,284.362)"
font-family="Noto Sans" font-size="12" font-weight="400" font-style="normal" 
>
</g>

<g fill="none" stroke="#000000" stroke-opacity="1" stroke-width="1" stroke-linecap="square" stroke-linejoin="bevel" transform="matrix(2.2749,0,0,2.2749,145.593,284.362)"
font-family="Noto Sans" font-size="12" font-weight="400" font-style="normal" 
>
</g>

<g fill="none" stroke="#000000" stroke-opacity="1" stroke-width="1" stroke-linecap="square" stroke-linejoin="bevel" transform="matrix(0.75,0,0,0.75,0,0)"
font-family="Noto Sans" font-size="12" font-weight="400" font-style="normal" 
>
</g>

<g fill="none" stroke="#000000" stroke-opacity="1" stroke-width="1" stroke-linecap="square" stroke-linejoin="bevel" transform="matrix(0.75,0,0,0.75,0,0)"
font-family="Noto Sans" font-size="12" font-weight="400" font-style="normal" 
>
</g>
</g>
</svg>
